<?xml version="1.0" encoding="UTF-8"?>
<svg id="Layer_1" data-name="Layer 1" xmlns="http://www.w3.org/2000/svg" viewBox="0 0 1122.69 255.2">
  <defs>
    <style>
      .cls-1 {
        fill: #fff;
      }

      .cls-2 {
        fill: #f5ba2b;
      }
    </style>
  </defs>
  <!-- Background rounded rectangle removed for use on dark app backgrounds.
       The wordmark renders as white text + gold dots only, transparent box. -->
  <g>
    <path class="cls-1" d="M283.1,138.9h-50.4c1.9,8.3,8.9,13.4,19.1,13.4,7.1,0,12.1-2.1,16.7-6.4l10.3,11.1c-6.2,7.1-15.5,10.8-27.5,10.8-23,0-38-14.5-38-34.3s15.2-34.3,35.5-34.3,34.7,13.1,34.7,34.5c-.1,1.5-.3,3.6-.4,5.2ZM232.4,127.6h32.8c-1.4-8.4-7.7-13.9-16.3-13.9s-15.1,5.4-16.5,13.9Z"/>
    <path class="cls-1" d="M366.8,133.4c0,20.9-14.5,34.3-33.2,34.3-8.9,0-16.1-2.8-20.9-8.7v7.7h-18.4v-91.9h19.3v32.3c5-5.4,11.8-8,20.1-8,18.6,0,33.1,13.4,33.1,34.3ZM347.2,133.4c0-11.5-7.3-18.4-17-18.4s-17,6.9-17,18.4,7.3,18.4,17,18.4c9.7.1,17-6.9,17-18.4Z"/>
    <path class="cls-1" d="M445.7,128.6v38.1h-19.3v-35.1c0-10.8-5-15.7-13.5-15.7-9.3,0-16,5.7-16,18v32.9h-19.3v-91.9h19.3v32.2c5.2-5.2,12.6-7.9,21.2-7.9,15.7-.1,27.6,9.1,27.6,29.4Z"/>
    <path class="cls-1" d="M454.8,133.4c0-20.1,15.5-34.3,36.6-34.3s36.5,14.2,36.5,34.3-15.4,34.3-36.5,34.3c-21.1,0-36.6-14.2-36.6-34.3ZM508.4,133.4c0-11.5-7.3-18.4-17-18.4s-17.1,6.9-17.1,18.4,7.4,18.4,17.1,18.4c9.7.1,17-6.9,17-18.4Z"/>
    <path class="cls-1" d="M603.9,100.1v66.6h-18.3v-7.9c-5.1,5.8-12.5,8.9-20.7,8.9-16.7,0-28.5-9.4-28.5-30v-37.6h19.3v34.8c0,11.1,5,16.1,13.5,16.1s15.4-5.7,15.4-18v-32.9h19.3Z"/>
    <path class="cls-1" d="M615.4,160.5l6.4-13.9c5.9,3.8,15,6.4,23.2,6.4,8.9,0,12.3-2.4,12.3-6.1,0-10.9-40.2.2-40.2-26.4,0-12.6,11.4-21.5,30.8-21.5,9.2,0,19.3,2.1,25.6,5.8l-6.4,13.7c-6.6-3.7-13.1-5-19.2-5-8.7,0-12.4,2.7-12.4,6.2,0,11.4,40.2.4,40.2,26.6,0,12.4-11.5,21.2-31.4,21.2-11.3.2-22.7-2.9-28.9-7Z"/>
    <path class="cls-1" d="M752.4,138.9h-50.4c1.9,8.3,8.9,13.4,19.1,13.4,7.1,0,12.1-2.1,16.7-6.4l10.3,11.1c-6.2,7.1-15.5,10.8-27.5,10.8-23,0-38-14.5-38-34.3s15.2-34.3,35.5-34.3,34.7,13.1,34.7,34.5c0,1.5-.2,3.6-.4,5.2ZM701.8,127.6h32.8c-1.4-8.4-7.7-13.9-16.3-13.9s-15.1,5.4-16.5,13.9Z"/>
    <path class="cls-1" d="M203.6,94.5v39.8c0,21.2-11.9,33.4-33.5,33.4-9.9,0-18.1-2.7-23.7-10.2-5.5,7.2-13.4,10.2-23.9,10.2-21.7,0-33.4-12.2-33.4-33.4v-39.8h20.9v38.2c0,11.9,3.9,17.4,12.7,17.4s13.1-5.5,13.1-17.4v-38.2h20.9v38.2c0,11.9,4.3,17.4,13.1,17.4s12.7-5.5,12.7-17.4v-38.2h21.1Z"/>
  </g>
  <g>
    <path class="cls-2" d="M764.05,157.3c0-7.25,5.38-12,12.12-12s12.12,4.75,12.12,12-5.38,12.25-12.12,12.25-12.12-5.12-12.12-12.25Z"/>
    <path class="cls-2" d="M868.93,101.3v67.25h-18.62v-7.75c-4.88,5.88-12,8.75-21,8.75-19,0-33.62-13.5-33.62-34.62s14.62-34.63,33.62-34.63c8.25,0,15.25,2.62,20.12,8.12v-7.12h19.5ZM849.8,134.92c0-11.63-7.5-18.63-17.12-18.63s-17.25,7-17.25,18.63,7.5,18.62,17.25,18.62,17.12-7,17.12-18.62Z"/>
    <path class="cls-2" d="M956.42,134.92c0,21.12-14.62,34.62-33.5,34.62-8.38,0-15.25-2.62-20.25-8.12v31.38h-19.5v-91.5h18.62v7.75c4.88-5.88,12.12-8.75,21.12-8.75,18.88,0,33.5,13.5,33.5,34.63ZM936.67,134.92c0-11.63-7.38-18.63-17.12-18.63s-17.12,7-17.12,18.63,7.38,18.62,17.12,18.62,17.12-7,17.12-18.62Z"/>
    <path class="cls-2" d="M1038.92,134.92c0,21.12-14.62,34.62-33.5,34.62-8.38,0-15.25-2.62-20.25-8.12v31.38h-19.5v-91.5h18.62v7.75c4.88-5.88,12.12-8.75,21.12-8.75,18.88,0,33.5,13.5,33.5,34.63ZM1019.17,134.92c0-11.63-7.38-18.63-17.12-18.63s-17.12,7-17.12,18.63,7.38,18.62,17.12,18.62,17.12-7,17.12-18.62Z"/>
  </g>
</svg>