<svg viewBox="25 45 715 370" xmlns="http://www.w3.org/2000/svg" role="img" aria-label="Tree classification versus associative graph">
  <!-- LEFT: Tree -->
  <g fill="none" stroke="#1a1715" stroke-width="1">
    <rect x="150" y="60" width="60" height="22"/>
    <rect x="60"  y="135" width="60" height="22"/>
    <rect x="150" y="135" width="60" height="22"/>
    <rect x="240" y="135" width="60" height="22"/>
    <rect x="30"  y="210" width="48" height="18"/>
    <rect x="88"  y="210" width="48" height="18"/>
    <rect x="146" y="210" width="48" height="18"/>
    <rect x="204" y="210" width="48" height="18"/>
    <rect x="262" y="210" width="48" height="18"/>
  </g>
  <g font-family="monospace" font-size="9" fill="#1a1715">
    <text x="180" y="76" text-anchor="middle">000</text>
    <text x="90"  y="151" text-anchor="middle">100</text>
    <text x="180" y="151" text-anchor="middle">200</text>
    <text x="270" y="151" text-anchor="middle">300</text>
  </g>
  <g stroke="#1a1715" stroke-width="0.8">
    <line x1="180" y1="82"  x2="90"  y2="135"/>
    <line x1="180" y1="82"  x2="180" y2="135"/>
    <line x1="180" y1="82"  x2="270" y2="135"/>
    <line x1="90"  y1="157" x2="54"  y2="210"/>
    <line x1="90"  y1="157" x2="112" y2="210"/>
    <line x1="180" y1="157" x2="170" y2="210"/>
    <line x1="180" y1="157" x2="228" y2="210"/>
    <line x1="270" y1="157" x2="286" y2="210"/>
  </g>
  <text x="170" y="270" font-family="monospace" font-size="11" fill="#1a1715" text-anchor="middle" letter-spacing="1">HIERARCHICAL</text>
  <text x="170" y="288" font-family="monospace" font-size="9"  fill="#1a1715" text-anchor="middle" opacity="0.55">the library</text>

  <!-- ARROW in the middle -->
  <g>
    <line x1="340" y1="160" x2="460" y2="160" stroke="#e8a87c" stroke-width="1.8"/>
    <polygon points="460,160 450,154 450,166" fill="#e8a87c"/>
  </g>

  <!-- RIGHT: Associative graph -->
  <g fill="none" stroke="#1a1715" stroke-width="1">
    <circle cx="560" cy="75"  r="11"/>
    <circle cx="650" cy="110" r="11"/>
    <circle cx="720" cy="60"  r="11"/>
    <circle cx="540" cy="165" r="11"/>
    <circle cx="710" cy="155" r="11"/>
    <circle cx="560" cy="240" r="11"/>
    <circle cx="695" cy="245" r="11"/>
  </g>
  <!-- amber active node -->
  <circle cx="625" cy="195" r="11" fill="#e8a87c" stroke="#e8a87c"/>
  <!-- faint background links -->
  <g stroke="#1a1715" stroke-width="0.8" opacity="0.35">
    <line x1="560" y1="75"  x2="650" y2="110"/>
    <line x1="650" y1="110" x2="720" y2="60"/>
    <line x1="650" y1="110" x2="710" y2="155"/>
    <line x1="540" y1="165" x2="560" y2="240"/>
    <line x1="710" y1="155" x2="695" y2="245"/>
    <line x1="560" y1="240" x2="695" y2="245"/>
  </g>
  <!-- active amber Trail -->
  <g stroke="#e8a87c" stroke-width="1.6" fill="none">
    <line x1="540" y1="165" x2="625" y2="195"/>
    <line x1="625" y1="195" x2="710" y2="155"/>
    <line x1="625" y1="195" x2="695" y2="245"/>
    <line x1="625" y1="195" x2="650" y2="110"/>
  </g>
  <text x="625" y="305" font-family="monospace" font-size="11" fill="#1a1715" text-anchor="middle" letter-spacing="1">ASSOCIATIVE</text>
  <text x="625" y="323" font-family="monospace" font-size="9"  fill="#1a1715" text-anchor="middle" opacity="0.55">the mind</text>

  <!-- Caption -->
  <text x="400" y="380" font-family="monospace" font-size="11" fill="#1a1715" text-anchor="middle" opacity="0.55" letter-spacing="1.5">FROM CLASSIFICATION TO ASSOCIATION</text>
  <text x="400" y="400" font-family="monospace" font-size="9"  fill="#1a1715" text-anchor="middle" opacity="0.4">"The human mind ... operates by association." — Bush, 1945</text>
</svg>