<?xml version="1.0" encoding="UTF-8"?>
<svg id="Layer_1" data-name="Layer 1" xmlns="http://www.w3.org/2000/svg" viewBox="0 0 355.5 86.05">
  <defs>
    <style>
      .cls-1 { fill: #f9b11d; }
      .cls-2 { fill: #ffffff; }
    </style>
  </defs>
  <g>
    <path class="cls-1" d="M86.16,45.17c.5-.03.99-.05,1.49-.06,4.3-.05,9.12,2.14,12.15,5.16,2.23,2.2,3.8,4.97,4.55,8.01.82,3.31.55,8.76.55,12.35v15.3s-15.14-.03-15.14-.03c-6.38-.06-12.91.02-19.31.02-.04-5.22-.06-10.44-.04-15.65,0-2.08.1-4.54-.01-6.6-.54-9.59,5.84-17.65,15.75-18.5Z"/>
    <path class="cls-1" d="M39.81,43.62h.13c-.01.11-2.8,3.41-3.18,3.92-5.07,6.88-4,14.5-4.01,22.73-.01,5.23-.06,10.47-.13,15.7-10.47.17-21.65.01-32.15-.05l-.3-.1c-.23-.47-.2-20.45-.12-22.59.03-1.07.15-2.14.34-3.2.44-2.39,1.44-4.65,2.93-6.57,1.79-2.33,4.19-4.12,6.93-5.18,2.94-1.16,8.36-1.73,11.67-2.2l17.88-2.46Z"/>
    <path class="cls-1" d="M49.31,42.55c.62-.07,1.25-.11,1.87-.11,4.34-.05,8.52,1.66,11.58,4.75,6.22,6.19,5.12,13.86,5.12,21.88l-.04,16.79c-4.43.02-7-.33-11.25-1.59-9.93-2.74-18.6-11.57-20.53-21.8-1.82-9.67,3.41-18.11,13.26-19.91Z"/>
    <path class="cls-1" d="M57.1,1.23l.35-.04c0,.27-2.12,2.52-2.63,3.23-1.69,2.38-2.92,5.06-3.61,7.89-.88,3.62-.78,8.34-.88,12.14-.14,5.08-.25,10.17-.34,15.25l-30.88,4.08c-.32-.08-.18,0-.39-.33-.16-2.9,0-7.26-.03-10.32-.03-2.89-.2-9.02.17-11.56.25-1.79.85-3.52,1.74-5.09,4.08-7.24,10.58-7.96,17.85-10L57.1,1.23Z"/>
    <path class="cls-1" d="M67.36.04c5.01-.32,9.35,1.15,12.93,4.75,2.18,2.18,3.74,4.91,4.5,7.9.85,3.33.59,9.32.59,12.94v16.49c-4.76.22-7.14.04-11.73-1.31-3.5-1.26-5.87-2.34-8.95-4.49-9.13-6.37-15.11-20.42-7.83-30.24,2.68-3.62,6.08-5.37,10.5-6.04Z"/>
  </g>
  <g>
    <path class="cls-2" d="M167.03,25.53c4.91,4.93,7.36,12.52,7.36,22.76,0,5.23-.68,9.47-2.04,12.72-1.36,3.25-3.09,5.57-5.2,6.96-2.11,1.39-4.33,2.08-6.68,2.08-4.11,0-7.01-1.41-8.72-4.24-1.39,1.28-2.93,2.31-4.64,3.08-1.71.77-3.73,1.16-6.08,1.16-7.57,0-11.36-3.04-11.36-9.12,0-3.15.77-5.55,2.32-7.2,1.55-1.65,3.8-2.79,6.76-3.4,2.96-.61,6.84-.92,11.64-.92v-1.6c0-1.23-.36-2.19-1.08-2.88-.72-.69-1.64-1.04-2.76-1.04s-2.07.24-2.84.72c-.77.48-1.16,1.28-1.16,2.4h-11.92c-.05-.21-.08-.48-.08-.8,0-3.04,1.4-5.47,4.2-7.28,2.8-1.81,6.79-2.72,11.96-2.72,4.69,0,8.52.83,11.48,2.48,2.96,1.65,4.44,4.32,4.44,8v12.72c0,1.6.77,2.4,2.32,2.4.91,0,1.8-.95,2.68-2.84.88-1.89,1.32-5.48,1.32-10.76,0-8.59-1.95-14.93-5.84-19.04-3.89-4.11-9.2-6.16-15.92-6.16-7.68,0-13.49,2.49-17.44,7.48-3.95,4.99-5.92,12.47-5.92,22.44,0,9.44,1.72,16.51,5.16,21.2,3.44,4.69,8.71,7.04,15.8,7.04,1.71,0,3.76-.25,6.16-.76,2.4-.51,4.21-1.11,5.44-1.8v5.28c-1.39.59-3.27,1.09-5.64,1.52-2.37.43-4.36.64-5.96.64-8.43,0-14.93-2.72-19.52-8.16-4.59-5.44-6.88-13.79-6.88-25.04,0-12,2.61-20.79,7.84-26.36,5.23-5.57,12.24-8.36,21.04-8.36,8.27,0,14.85,2.47,19.76,7.4ZM143.87,56.37c-1.41.75-2.12,1.76-2.12,3.04,0,2.08,1.12,3.12,3.36,3.12,1.44,0,2.68-.44,3.72-1.32s1.56-1.96,1.56-3.24v-2.72c-2.93,0-5.11.37-6.52,1.12Z"/>
    <path class="cls-2" d="M219.46,35.37c4.29,2.96,6.44,7.48,6.44,13.56h-15.44c0-4.8-2.61-7.2-7.84-7.2s-7.84,3.01-7.84,9.04v4.56c0,5.97,2.72,8.96,8.16,8.96s8.16-2.45,8.16-7.36h14.8c0,6.13-2.15,10.69-6.44,13.68-4.29,2.99-9.91,4.48-16.84,4.48-7.41,0-13.23-1.87-17.44-5.6-4.21-3.73-6.32-9.23-6.32-16.48s2.11-12.75,6.32-16.48c4.21-3.73,10.03-5.6,17.44-5.6,6.93,0,12.55,1.48,16.84,4.44Z"/>
    <path class="cls-2" d="M301.02,35.05c2.4,2.75,3.6,6.65,3.6,11.72v27.36h-15.92v-25.44c0-1.81-.44-3.27-1.32-4.36-.88-1.09-2.12-1.64-3.72-1.64-1.87,0-3.39.64-4.56,1.92-1.17,1.28-1.76,2.85-1.76,4.72v24.8h-15.92v-25.44c0-1.81-.44-3.27-1.32-4.36-.88-1.09-2.12-1.64-3.72-1.64-1.87,0-3.39.64-4.56,1.92-1.17,1.28-1.76,2.85-1.76,4.72v24.8h-15.92V31.89h13.04l1.04,6.32c1.6-2.24,3.72-4.01,6.36-5.32,2.64-1.31,5.43-1.96,8.36-1.96,6.35,0,10.61,2.43,12.8,7.28,1.65-2.24,3.77-4.01,6.36-5.32,2.59-1.31,5.29-1.96,8.12-1.96,4.8,0,8.4,1.37,10.8,4.12Z"/>
    <path class="cls-2" d="M348.58,34.25c3.92,2.21,5.88,5.64,5.88,10.28h-14.8c0-1.55-.69-2.64-2.08-3.28-.96-.53-2.16-.8-3.6-.8-3.84,0-5.76.91-5.76,2.72,0,1.01.67,1.73,2,2.16,1.33.43,3.52.88,6.56,1.36,3.73.53,6.85,1.16,9.36,1.88,2.51.72,4.69,2,6.56,3.84,1.87,1.84,2.8,4.41,2.8,7.72,0,5.39-2.01,9.23-6.04,11.52-4.03,2.29-9.29,3.44-15.8,3.44-3.73,0-7.25-.52-10.56-1.56-3.31-1.04-6-2.65-8.08-4.84-2.08-2.19-3.12-4.96-3.12-8.32h14.8v.32c.05,1.81.81,3.08,2.28,3.8,1.47.72,3.03,1.08,4.68,1.08,4.43,0,6.64-1.04,6.64-3.12,0-1.07-.69-1.84-2.08-2.32-1.39-.48-3.65-.99-6.8-1.52-3.79-.64-6.89-1.33-9.32-2.08-2.43-.75-4.55-2.01-6.36-3.8-1.81-1.79-2.72-4.28-2.72-7.48,0-5.17,1.96-8.85,5.88-11.04,3.92-2.19,9.03-3.28,15.32-3.28,5.65,0,10.44,1.11,14.36,3.32Z"/>
  </g>
</svg>
