<?xml version="1.0" encoding="UTF-8"?>
<svg id="Layer_1" data-name="Layer 1" xmlns="http://www.w3.org/2000/svg" viewBox="0 0 104.94 86.05">
  <defs>
    <style>
      .cls-1 {
        fill: #f9b11d;
      }
    </style>
  </defs>
  <path class="cls-1" d="M86.16,45.17c.5-.03.99-.05,1.49-.06,4.3-.05,9.12,2.14,12.15,5.16,2.23,2.2,3.8,4.97,4.55,8.01.82,3.31.55,8.76.55,12.35v15.3s-15.14-.03-15.14-.03c-6.38-.06-12.91.02-19.31.02-.04-5.22-.06-10.44-.04-15.65,0-2.08.1-4.54-.01-6.6-.54-9.59,5.84-17.65,15.75-18.5Z"/>
  <path class="cls-1" d="M39.81,43.62h.13c-.01.11-2.8,3.41-3.18,3.92-5.07,6.88-4,14.5-4.01,22.73-.01,5.23-.06,10.47-.13,15.7-10.47.17-21.65.01-32.15-.05l-.3-.1c-.23-.47-.2-20.45-.12-22.59.03-1.07.15-2.14.34-3.2.44-2.39,1.44-4.65,2.93-6.57,1.79-2.33,4.19-4.12,6.93-5.18,2.94-1.16,8.36-1.73,11.67-2.2l17.88-2.46Z"/>
  <path class="cls-1" d="M49.31,42.55c.62-.07,1.25-.11,1.87-.11,4.34-.05,8.52,1.66,11.58,4.75,6.22,6.19,5.12,13.86,5.12,21.88l-.04,16.79c-4.43.02-7-.33-11.25-1.59-9.93-2.74-18.6-11.57-20.53-21.8-1.82-9.67,3.41-18.11,13.26-19.91Z"/>
  <path class="cls-1" d="M57.1,1.23l.35-.04c0,.27-2.12,2.52-2.63,3.23-1.69,2.38-2.92,5.06-3.61,7.89-.88,3.62-.78,8.34-.88,12.14-.14,5.08-.25,10.17-.34,15.25l-30.88,4.08c-.32-.08-.18,0-.39-.33-.16-2.9,0-7.26-.03-10.32-.03-2.89-.2-9.02.17-11.56.25-1.79.85-3.52,1.74-5.09,4.08-7.24,10.58-7.96,17.85-10L57.1,1.23Z"/>
  <path class="cls-1" d="M67.36.04c5.01-.32,9.35,1.15,12.93,4.75,2.18,2.18,3.74,4.91,4.5,7.9.85,3.33.59,9.32.59,12.94v16.49c-4.76.22-7.14.04-11.73-1.31-3.5-1.26-5.87-2.34-8.95-4.49-9.13-6.37-15.11-20.42-7.83-30.24,2.68-3.62,6.08-5.37,10.5-6.04Z"/>
</svg>